<svg xmlns="http://www.w3.org/2000/svg" width="184" height="48" viewBox="0 0 184 48">
    <g fill="none" fill-rule="nonzero">
        <g fill="#44CCDF">
            <path d="M62.207 41.604v.997H51.79v-.997c3.06 0 3.595-1.575 3.595-6.318V20.198c0-4.743-.546-5.501-3.595-5.501V13.7l6.098-1.187c.218.474.544 2.135.682 2.893 1.31-1.66 3.138-2.893 5.64-2.893 4.32 0 7.868 3.889 7.868 8.68 0 4.79-3.55 8.725-7.868 8.725-2.186-.004-4.25-1.056-5.595-2.852v8.213c0 4.75.59 6.324 3.593 6.324zm1.047-27.192c-2.094 0-3.776 1.517-4.64 3.697v6.12c.864 2.278 2.546 3.792 4.64 3.792 3.497 0 5.14-3.034 5.14-6.834s-1.637-6.775-5.14-6.775zM86.236 17.683c-.882-.034-1.583-.785-1.59-1.706 0-.996-.547-1.565-1.456-1.565-1.047 0-3.497 1.754-3.497 5.547v2.609c0 4.743.546 5.55 3.593 5.55v1H72.86v-.996c3.003 0 3.595-.807 3.595-5.55v-2.374c0-4.75-.594-5.501-3.595-5.501V13.7l6.06-1.187c.22.474.639 2.42.774 3.417.91-1.897 2.957-3.417 4.778-3.417 2.502 0 3.592 1.754 3.592 2.941-.008 1.044-.417 2.228-1.829 2.228zM144.509 29.088l.013.025h.49a3.936 3.936 0 0 1-.503-.025zm-2.347-10.382h.015c0-.615-.013-1.166-.05-1.656 0 .426.02.98.035 1.656zM148.68 28.08l-.034.021h.05zM94.316 4.514c-.824-.01-1.571.5-1.891 1.292a2.178 2.178 0 0 0 .434 2.312c.583.608 1.46.787 2.22.453.758-.333 1.248-1.112 1.239-1.97-.01-1.15-.9-2.078-2.002-2.087z"/>
            <path d="M160.605 12.514c-1.82 0-3.868 1.518-4.778 3.417-.135-.995-.546-2.94-.773-3.417l-6.052 1.187v.996c3.003 0 3.595.758 3.595 5.501v2.37c0 4.743-.592 5.55-3.595 5.55h-.365c-2.734-.067-3.236-.994-3.236-5.546v-3.916c0-4.506-1.82-6.45-6.233-6.45-2.911 0-5.779 1.518-5.779 3.794-.021.6.273 1.163.768 1.47.495.305 1.11.305 1.605 0 .495-.307.79-.87.768-1.47 0-1.517 1.545-2.278 2.592-2.278 2.144 0 2.826.972 2.998 3.319.037.49.05 1.041.05 1.656h-.015c-5.18.95-9.675 2.704-9.675 6.732-.024 1.016.342 2 1.016 2.734-4.198 0-4.54-.47-4.405-5.561v-2.97c0-4.03-1.183-7.063-5.232-7.063-2.682 0-5.322 1.993-6.369 3.558-.636-2.182-2.045-3.558-4.82-3.558-2.639 0-4.686 1.802-5.915 3.417-.137-.995-.546-2.939-.773-3.417l-6.052 1.187v.995c3.003 0 3.595.759 3.595 5.502v2.37c0 4.742-.592 5.549-3.595 5.549-3.54.075-3.984-.982-3.984-5.561V12.564l-6.823 1.187v.996c3 0 3.593.758 3.593 5.502v2.369c0 4.743-.592 5.55-3.593 5.55v.995h20.452v-.996c-2.503 0-2.82-.617-2.82-5.55v-3.082c0-2.938 3.093-4.74 4.686-4.74 2.365 0 3.278 1.99 3.278 5.073v2.75c0 5.028-.365 5.55-2.867 5.55v.995h8.916v-.996c-2.548 0-2.865-.521-2.865-5.55v-3.082c.005-2.947 3.198-4.74 4.727-4.74 2.367 0 3.233 1.99 3.233 5.073v2.75c0 5.028-.32 5.55-2.822 5.55v.995h11.987c.5.174 1.022.26 1.548.257 1.818 0 3.457-.758 5.682-2.845.205 1.535.824 2.362 2.24 2.506.157.016.326.025.503.025h14.408v-.996c-3.046 0-3.593-.806-3.593-5.55v-2.6c0-3.794 2.457-5.548 3.497-5.548.91 0 1.456.57 1.456 1.565.007.92.708 1.672 1.59 1.706 1.412 0 1.821-1.184 1.821-2.228.018-1.187-1.073-2.94-3.575-2.94zm-18.428 12.503c-2.094 1.945-3.184 2.278-4.14 2.278-1.138 0-2.139-.9-2.139-2.417 0-2.087 1.967-3.645 6.28-4.696v4.835zM172.022 34.13l2.275-5.924-5.239-11.812c-.957-2.087-1.639-2.798-3.06-2.798v-.95h8.052v.95c-2.002 0-2.503.474-1.456 2.798l3.322 7.586 2.911-7.586c.863-2.135.546-2.798-1.311-2.798v-.95h6.368v.95c-1.41 0-2.404.711-3.23 2.798l-9.653 23.92c-.363.95-.955 1.757-1.683 1.757-.636 0-1.547-.38-1.547-1.565.002-1.862 2.832-2.68 4.25-6.377z"/>
        </g>
        <g>
            <path fill="#44CCDF" d="M23.518 45.025C12.046 45.023 2.748 35.7 2.749 24.202 2.75 12.704 12.051 3.383 23.523 3.384c11.471 0 20.77 9.322 20.77 20.82-.013 11.495-9.307 20.81-20.775 20.82zm0-40.229c-10.694 0-19.363 8.69-19.363 19.408 0 10.72 8.669 19.409 19.363 19.409 10.694 0 19.363-8.69 19.363-19.409-.01-10.714-8.674-19.397-19.363-19.408z"/>
            <path fill="#ED4335" d="M23.518 42.237c-9.936 0-17.99-8.074-17.99-18.033 0-9.959 8.054-18.032 17.99-18.032 9.936 0 17.99 8.073 17.99 18.032-.013 9.954-8.06 18.02-17.99 18.033zm0-35.213c-9.463 0-17.134 7.689-17.134 17.173 0 9.485 7.671 17.174 17.134 17.174 9.463 0 17.134-7.689 17.134-17.174-.015-9.478-7.678-17.158-17.134-17.173z"/>
            <path fill="#ED4335" d="M23.52 42.449c-10.052 0-18.2-8.168-18.2-18.243s8.148-18.242 18.2-18.242 18.2 8.167 18.2 18.242c-.013 10.07-8.154 18.23-18.2 18.243zM23.518 7.6c-9.145 0-16.559 7.43-16.559 16.597 0 9.166 7.414 16.597 16.559 16.597 9.145 0 16.559-7.43 16.559-16.597-.015-9.16-7.42-16.583-16.559-16.597z"/>
            <path fill="#26337B" d="M23.518 47.777C10.529 47.777 0 37.223 0 24.204 0 11.186 10.53.632 23.518.632c12.989 0 23.518 10.554 23.518 23.572C47.02 37.217 36.5 47.762 23.518 47.777zm0-45.732c-12.208.01-22.098 9.934-22.091 22.17.006 12.237 9.906 22.152 22.114 22.149 12.208-.003 22.103-9.923 22.103-22.16-.013-12.24-9.914-22.156-22.126-22.16z"/>
            <path fill="#00A75D" d="M23.518 32.015c-4.304 0-7.793-3.497-7.793-7.81 0-4.314 3.49-7.811 7.793-7.811 4.304 0 7.792 3.497 7.792 7.81-.003 4.312-3.49 7.807-7.792 7.81zm0-14.678c-3.784 0-6.851 3.075-6.851 6.867 0 3.793 3.067 6.867 6.851 6.867s6.851-3.074 6.851-6.867c-.004-3.79-3.069-6.863-6.851-6.867z"/>
            <path fill="#44CCDF" d="M23.518 35.556a11.325 11.325 0 0 1-10.466-7.005 11.37 11.37 0 0 1 2.453-12.372 11.306 11.306 0 0 1 12.343-2.463 11.352 11.352 0 0 1 6.992 10.488c-.007 6.265-5.072 11.343-11.322 11.352zm0-21.307a9.936 9.936 0 0 0-9.182 6.146 9.976 9.976 0 0 0 2.153 10.855 9.92 9.92 0 0 0 10.83 2.158 9.959 9.959 0 0 0 6.131-9.204c-.007-5.495-4.45-9.948-9.932-9.955z"/>
            <path fill="#E94D97" d="M23.518 39.887c-8.641 0-15.647-7.021-15.647-15.683 0-8.661 7.006-15.682 15.647-15.682s15.647 7.021 15.647 15.682c-.01 8.658-7.01 15.674-15.647 15.683zm0-30c-7.889 0-14.284 6.41-14.284 14.317s6.395 14.317 14.284 14.317c7.889 0 14.284-6.41 14.284-14.317 0-3.797-1.505-7.438-4.184-10.123a14.267 14.267 0 0 0-10.1-4.194z"/>
            <path fill="#00A75D" d="M23.518 37.837c-7.512 0-13.6-6.104-13.6-13.633 0-7.529 6.088-13.632 13.6-13.632s13.6 6.103 13.6 13.632c-.009 7.525-6.092 13.623-13.6 13.633zm0-26.123c-6.877 0-12.451 5.588-12.451 12.48s5.574 12.48 12.451 12.48c6.876 0 12.451-5.588 12.451-12.48-.014-6.886-5.58-12.465-12.451-12.48z"/>
            <path fill="#26337B" d="M23.518 33.152a8.927 8.927 0 0 1-8.261-5.516 8.963 8.963 0 0 1 1.932-9.758 8.912 8.912 0 0 1 9.736-1.937 8.948 8.948 0 0 1 5.503 8.28c-.015 4.926-3.996 8.916-8.91 8.93zm0-17.325a8.358 8.358 0 0 0-7.727 5.167 8.391 8.391 0 0 0 1.808 9.132 8.344 8.344 0 0 0 9.109 1.819 8.377 8.377 0 0 0 5.161-7.74c-.006-4.622-3.74-8.368-8.351-8.378z"/>
            <ellipse cx="23.518" cy="24.204" fill="#939498" rx="2.478" ry="2.483"/>
            <path fill="#FFE000" d="M23.519 28.892a4.677 4.677 0 0 1-4.329-2.886 4.696 4.696 0 0 1 1.007-5.112 4.669 4.669 0 0 1 5.098-1.021 4.69 4.69 0 0 1-1.776 9.02zm-.001-7.808a3.116 3.116 0 0 0-3.113 3.12 3.116 3.116 0 0 0 3.113 3.12 3.116 3.116 0 0 0 3.113-3.12 3.12 3.12 0 0 0-3.113-3.12z"/>
            <path fill="#ED4335" d="M23.518 30.452c-3.443 0-6.233-2.797-6.233-6.248 0-3.45 2.79-6.247 6.233-6.247 3.443 0 6.233 2.797 6.233 6.247-.003 3.45-2.792 6.244-6.233 6.248zm0-11.358a5.105 5.105 0 0 0-5.1 5.11 5.105 5.105 0 0 0 5.1 5.111 5.105 5.105 0 0 0 5.099-5.11 5.112 5.112 0 0 0-5.099-5.111z"/>
        </g>
    </g>
</svg>
